<?xml version="1.0" encoding="UTF-8" standalone="no"?>
<!-- Created with Inkscape (http://www.inkscape.org/) -->

<svg
   xmlns:dc="http://purl.org/dc/elements/1.1/"
   xmlns:cc="http://creativecommons.org/ns#"
   xmlns:rdf="http://www.w3.org/1999/02/22-rdf-syntax-ns#"
   xmlns:svg="http://www.w3.org/2000/svg"
   xmlns="http://www.w3.org/2000/svg"
   xmlns:sodipodi="http://sodipodi.sourceforge.net/DTD/sodipodi-0.dtd"
   xmlns:inkscape="http://www.inkscape.org/namespaces/inkscape"
   width="210mm"
   height="297mm"
   viewBox="0 0 210 297"
   version="1.1"
   id="svg8"
   inkscape:version="0.92.5 (2060ec1f9f, 2020-04-08)"
   sodipodi:docname="beginning.svg">
  <defs
     id="defs2" />
  <sodipodi:namedview
     id="base"
     pagecolor="#ffffff"
     bordercolor="#666666"
     borderopacity="1.0"
     inkscape:pageopacity="0.0"
     inkscape:pageshadow="2"
     inkscape:zoom="0.24748737"
     inkscape:cx="93.727365"
     inkscape:cy="795.73366"
     inkscape:document-units="mm"
     inkscape:current-layer="layer1"
     showgrid="false"
     inkscape:window-width="1280"
     inkscape:window-height="657"
     inkscape:window-x="-8"
     inkscape:window-y="-8"
     inkscape:window-maximized="1" />
  <metadata
     id="metadata5">
    <rdf:RDF>
      <cc:Work
         rdf:about="">
        <dc:format>image/svg+xml</dc:format>
        <dc:type
           rdf:resource="http://purl.org/dc/dcmitype/StillImage" />
        <dc:title></dc:title>
      </cc:Work>
    </rdf:RDF>
  </metadata>
  <g
     inkscape:label="Layer 1"
     inkscape:groupmode="layer"
     id="layer1">
    <g
       id="layer1-9"
       inkscape:label="Layer 1"
       transform="translate(-236.23512,1113.1399)"
       style="stroke-width:10;stroke-miterlimit:4;stroke-dasharray:none">
      <rect
         y="-1214.084"
         x="-631.33435"
         height="394.18253"
         width="394.18253"
         id="rect847"
         style="fill:#ffffff;fill-opacity:1;stroke:#000000;stroke-width:10;stroke-linecap:square;stroke-linejoin:round;stroke-miterlimit:4;stroke-dasharray:none;stroke-opacity:1"
         transform="matrix(-0.99999808,-0.00195956,-0.00195956,0.99999808,0,0)" />
      <path
         style="fill:none;stroke:#000000;stroke-width:10;stroke-linecap:butt;stroke-linejoin:miter;stroke-miterlimit:4;stroke-dasharray:none;stroke-opacity:1;paint-order:normal"
         d="m 338.7192,-1211.9081 1.73809,389.97799"
         id="path825"
         inkscape:connector-curvature="0" />
      <path
         style="fill:none;stroke:#000000;stroke-width:10;stroke-linecap:butt;stroke-linejoin:miter;stroke-miterlimit:4;stroke-dasharray:none;stroke-opacity:1"
         d="m 438.73508,-1210.4115 0.16352,389.99777"
         id="path827"
         inkscape:connector-curvature="0" />
      <path
         style="fill:none;stroke:#000000;stroke-width:10;stroke-linecap:butt;stroke-linejoin:miter;stroke-miterlimit:4;stroke-dasharray:none;stroke-opacity:1"
         d="m 538.73443,-1210.3614 4.27738,389.94518"
         id="path829"
         inkscape:connector-curvature="0" />
      <path
         style="fill:none;stroke:#000000;stroke-width:10;stroke-linecap:butt;stroke-linejoin:miter;stroke-miterlimit:4;stroke-dasharray:none;stroke-opacity:1"
         d="m 239.44041,-1116.1832 101.56436,99.0566"
         id="path841"
         inkscape:connector-curvature="0" />
      <path
         style="fill:none;stroke:#000000;stroke-width:10;stroke-linecap:butt;stroke-linejoin:miter;stroke-miterlimit:4;stroke-dasharray:none;stroke-opacity:1"
         d="m 240.51143,-1016.2722 99.42427,101.77711"
         id="path843"
         inkscape:connector-curvature="0" />
      <path
         style="fill:none;stroke:#000000;stroke-width:10;stroke-linecap:butt;stroke-linejoin:miter;stroke-miterlimit:4;stroke-dasharray:none;stroke-opacity:1"
         d="m 239.44235,-916.27219 101.01494,94.34207"
         id="path845"
         inkscape:connector-curvature="0" />
      <path
         style="fill:none;stroke:#000000;stroke-width:10;stroke-linecap:butt;stroke-linejoin:miter;stroke-miterlimit:4;stroke-dasharray:none;stroke-opacity:1"
         d="m 341.00477,-1017.1266 97.28611,-100.4933"
         id="path849"
         inkscape:connector-curvature="0" />
      <path
         style="fill:none;stroke:#000000;stroke-width:10;stroke-linecap:butt;stroke-linejoin:miter;stroke-miterlimit:4;stroke-dasharray:none;stroke-opacity:1"
         d="m 339.9357,-914.49509 99.42426,-102.63151"
         id="path851"
         inkscape:connector-curvature="0" />
      <path
         style="fill:none;stroke:#000000;stroke-width:10;stroke-linecap:butt;stroke-linejoin:miter;stroke-miterlimit:4;stroke-dasharray:none;stroke-opacity:1"
         d="m 438.73508,-1210.4115 100.04915,90.6534 94.92797,-93.0864"
         id="path855"
         inkscape:connector-curvature="0" />
      <path
         style="fill:none;stroke:#000000;stroke-width:10;stroke-linecap:butt;stroke-linejoin:miter;stroke-miterlimit:4;stroke-dasharray:none;stroke-opacity:1"
         d="m 438.29088,-1117.6199 101.56242,99.4242 93.01173,-98.901"
         id="path857"
         inkscape:connector-curvature="0" />
      <path
         style="fill:none;stroke:#000000;stroke-width:10;stroke-linecap:butt;stroke-linejoin:miter;stroke-miterlimit:4;stroke-dasharray:none;stroke-opacity:1"
         d="m 439.35996,-1017.1266 101.56242,99.42428 93.0098,-99.63888"
         id="path859"
         inkscape:connector-curvature="0" />
      <path
         style="fill:none;stroke:#000000;stroke-width:10;stroke-linecap:butt;stroke-linejoin:miter;stroke-miterlimit:4;stroke-dasharray:none;stroke-opacity:1"
         d="m 543.01182,-820.41623 89.85128,-95.85596"
         id="path865"
         inkscape:connector-curvature="0" />
      <path
         style="fill:none;stroke:#000000;stroke-width:10;stroke-linecap:butt;stroke-linejoin:miter;stroke-miterlimit:4;stroke-dasharray:none;stroke-opacity:1"
         d="m 438.29088,-916.63324 104.72094,96.21701"
         id="path869"
         inkscape:connector-curvature="0" />
      <path
         style="fill:none;stroke:#000000;stroke-width:10;stroke-linecap:butt;stroke-linejoin:miter;stroke-miterlimit:4;stroke-dasharray:none;stroke-opacity:1"
         d="m 438.29088,-916.63324 -97.83359,94.70312"
         id="path871"
         inkscape:connector-curvature="0" />
      <path
         style="fill:none;stroke:none;stroke-width:10;stroke-linecap:butt;stroke-linejoin:miter;stroke-miterlimit:4;stroke-dasharray:none;stroke-opacity:1"
         d="m 239.53044,-1213.6169 99.33618,97.0661"
         id="path873"
         inkscape:connector-curvature="0" />
      <path
         style="fill:none;stroke:#000000;stroke-width:10;stroke-linecap:butt;stroke-linejoin:miter;stroke-miterlimit:4;stroke-dasharray:none;stroke-opacity:1"
         d="m 438.73508,-1210.4115 -99.86846,93.8607"
         id="path875"
         inkscape:connector-curvature="0" />
      <path
         style="fill:none;stroke:none;stroke-width:37.79527664;stroke-miterlimit:4;stroke-dasharray:none"
         d="m 208.88476,-204.66354 -165.665022,-163.3206 166.675172,-0.14962 166.67517,-0.14963 v 163.64471 c 0,90.00459 -0.45457,163.566192 -1.01015,163.470223 -0.55559,-0.09597 -75.55942,-73.668753 -166.67517,-163.495083 z"
         id="path6136"
         inkscape:connector-curvature="0"
         transform="matrix(0.26458333,0,0,0.26458333,236.23512,-1113.1399)" />
      <path
         style="fill:none;stroke:#000000;stroke-width:10;stroke-linecap:butt;stroke-linejoin:miter;stroke-miterlimit:4;stroke-dasharray:none;stroke-opacity:1"
         d="m 239.53044,-1213.6169 99.33618,97.0661"
         id="path6138"
         inkscape:connector-curvature="0" />
    </g>
    <path
       style="fill:#a0a0a0;stroke:none;stroke-width:4.04061031"
       d="m 29.077602,942.97908 c 0,-81.11525 1.450888,-147.48228 3.224195,-147.48228 2.802808,0 257.945323,235.9813 301.782453,279.1186 l 16.10302,15.8459 H 189.63244 29.077602 Z"
       id="path6398"
       inkscape:connector-curvature="0"
       transform="scale(0.26458333)" />
    <path
       style="fill:#a0a0a0;stroke:none;stroke-width:4.04061031"
       d="M 199.94075,523.73122 33.412948,353.04999 33.26558,198.49665 c -0.08105,-85.00434 1.145053,-154.553338 2.724678,-154.553338 1.579625,0 31.126586,27.798014 65.659912,61.773368 34.53333,33.97535 108.44738,106.29331 164.25345,160.70659 l 101.46558,98.93322 2.99931,164.56252 c 1.65065,90.56555 1.44816,164.54702 -0.45032,164.52799 -1.8973,-0.0202 -78.38715,-76.84109 -169.97744,-170.71578 z"
       id="path6400"
       inkscape:connector-curvature="0"
       transform="scale(0.26458333)" />
    <path
       style="fill:#000000;stroke:#000000;stroke-width:37.79527664;stroke-miterlimit:4;stroke-dasharray:none;stroke-opacity:1"
       d="m 216.47025,-210.48031 c -79.682,-77.7076 -145.502677,-143.16549 -146.268172,-145.46197 -0.941151,-2.82345 47.125102,-4.17543 148.447482,-4.17543 h 149.8393 v 145.46197 c 0,81.53171 -1.5695,145.461967 -3.57112,145.461967 -1.96411,0 -68.76548,-63.578947 -148.44749,-141.286537 z"
       id="path6404"
       inkscape:connector-curvature="0"
       transform="scale(0.26458333)" />
    <path
       style="fill:#000000;stroke:#000000;stroke-width:37.79527664;stroke-miterlimit:4;stroke-dasharray:none;stroke-opacity:1"
       d="M 240.54829,560.13126 C 174.11196,492.90561 101.17083,418.70723 78.456893,395.24598 L 37.158823,352.58915 V 202.30684 c 0,-82.65527 1.363706,-150.247741 3.030457,-150.205493 1.666752,0.04225 74.8523,70.181473 162.63456,155.864943 l 159.6041,155.78813 2.60261,35.05389 c 4.02096,54.15732 3.92767,283.55141 -0.11531,283.55141 -1.96549,0 -57.93062,-55.00281 -124.36695,-122.22846 z"
       id="path6406"
       inkscape:connector-curvature="0"
       transform="scale(0.26458333)" />
    <path
       style="opacity:1;fill:#000000;fill-opacity:0;fill-rule:nonzero;stroke:#000000;stroke-width:10;stroke-linecap:square;stroke-linejoin:round;stroke-miterlimit:4;stroke-dasharray:none;stroke-opacity:1;paint-order:normal"
       id="path6408"
       d="m 98.701734,187.22867 c -0.873707,-2.84649 -2.123672,-5.65286 -4.450352,-7.58237 -2.32456,-1.51505 -2.786907,-4.14164 -3.128042,-6.70714 -0.693981,-3.4419 -0.955027,-6.92671 -1.03832,-10.42944 -0.05924,-3.50152 0.123642,-6.99966 0.204306,-10.49897 0.0069,-0.41426 0.01384,-0.82852 0.02074,-1.24278 0.0011,-0.0822 1.163953,-0.0666 1.162847,0.0156 v 0 c -0.0052,0.41682 -0.01048,0.83364 -0.01572,1.25046 -0.07097,3.48387 -0.157921,6.9679 -0.148359,10.45276 0.05828,3.46443 0.31089,6.90492 0.981244,10.31175 0.30127,2.33433 0.621366,4.66982 2.775593,6.00906 2.479601,2.12501 3.948086,5.07179 4.750059,8.21647 0.01447,0.0788 -1.099537,0.28333 -1.114002,0.20456 z"
       inkscape:connector-curvature="0" />
    <path
       style="opacity:1;fill:#000000;fill-opacity:0;fill-rule:nonzero;stroke:#000000;stroke-width:10;stroke-linecap:square;stroke-linejoin:round;stroke-miterlimit:4;stroke-dasharray:none;stroke-opacity:1;paint-order:normal"
       id="path6410"
       d="m 10.501748,12.381888 c 1.549011,3.347982 2.633441,6.853408 3.357073,10.463756 0.006,0.03448 0.0121,0.06897 0.01815,0.103449 -0.367019,-0.09993 -0.845039,-0.01847 -1.101057,-0.299793 -0.235894,-0.25921 -0.06125,-0.69917 -0.122146,-1.044318 -0.07979,-0.452284 -0.165136,-0.905675 -0.299366,-1.344889 -0.226783,-0.742056 -0.80288,-1.963011 -1.117514,-2.662895 C 11.000721,17.183825 10.785947,16.757472 10.528385,16.35708 9.3962616,14.597146 9.9447804,15.806075 8.8673944,13.881461 8.1589173,12.615855 7.7590345,11.27027 7.3062906,9.9024341 6.8361863,8.2456313 6.4226762,6.574183 5.783354,4.9742804 5.7551753,4.8970895 6.8468218,4.4985831 6.8750005,4.5757742 v 0 c 0.648785,1.6209481 1.0751052,3.3062159 1.5484757,4.9863203 0.4301945,1.2842875 0.8074867,2.5476465 1.4744565,3.7363125 1.0410253,1.855303 0.5267313,0.701246 1.6802013,2.518706 0.273452,0.430863 0.501721,0.888793 0.752581,1.33319 0.385316,0.861116 1.994972,4.563284 1.551161,5.422518 -0.193703,0.375016 -0.636892,0.575146 -1.022341,0.747152 -0.08094,0.03612 -0.07885,-0.158769 -0.118272,-0.238154 -0.918614,-3.521427 -1.866274,-7.02137 -3.3374931,-10.365081 -0.023677,-0.07764 1.0743011,-0.412489 1.0979781,-0.33485 z"
       inkscape:connector-curvature="0" />
    <path
       style="fill:#000000;fill-opacity:1;stroke:#000000;stroke-width:37.79527664;stroke-miterlimit:4;stroke-dasharray:none;stroke-opacity:1"
       d="m 29.077602,1050.7107 c 0,-88.83155 5.55592,-247.29887 8.63334,-246.24227 3.661574,1.25717 199.814468,181.94931 266.128148,245.15197 l 42.42641,40.436 -158.59395,0.2025 -158.593948,0.2024 z"
       id="path6412"
       inkscape:connector-curvature="0"
       transform="scale(0.26458333)" />
    <path
       style="opacity:1;fill:#000000;fill-opacity:1;fill-rule:nonzero;stroke:#000000;stroke-width:10;stroke-linecap:square;stroke-linejoin:round;stroke-miterlimit:4;stroke-dasharray:none;stroke-opacity:1;paint-order:normal"
       id="path6414"
       d="m 11.985867,212.11341 c -0.821985,-2.39471 -2.2728643,-4.29053 -3.9793804,-6.10493 -0.053324,-0.0637 0.8470288,-0.81777 0.9003524,-0.75411 v 0 c 1.792897,1.88318 3.312579,3.86824 4.103056,6.39365 0.03291,0.0724 -0.991121,0.53779 -1.024028,0.46539 z"
       inkscape:connector-curvature="0" />
    <path
       style="fill:#a0a0a0;stroke:none;stroke-width:4.04061031"
       d="M 411.56427,249.12958 C 410.11241,217.3924 408.91787,147.65212 408.90974,94.151206 L 408.89496,-3.1231543 573.10333,-157.37677 c 90.3146,-84.83949 165.773,-154.25361 167.68532,-154.25361 1.91232,0 3.39998,64.09417 3.3059,142.4315 L 743.92349,-26.767367 583.35775,138.6018 c -88.31116,90.953 -162.49804,166.01323 -164.85973,166.80047 -2.81904,0.93968 -5.20073,-18.38959 -6.93375,-56.27269 z"
       id="path6416"
       inkscape:connector-curvature="0"
       transform="scale(0.26458333)" />
    <path
       style="fill:#a0a0a0;stroke:none;stroke-width:4.04061031"
       d="M 412.93557,903.52272 V 760.35734 L 574.75932,593.06916 c 89.00305,-92.0085 163.55231,-167.89428 165.66501,-168.63506 2.38699,-0.83695 3.75965,57.29357 3.62568,153.54319 l -0.21559,154.89006 -161.35757,155.5464 c -88.74666,85.55054 -163.1989,156.16025 -165.44942,156.91035 -2.71075,0.9036 -4.09186,-46.95824 -4.09186,-141.80138 z"
       id="path6418"
       inkscape:connector-curvature="0"
       transform="scale(0.26458333)" />
    <path
       style="fill:#a0a0a0;stroke:none;stroke-width:4.04061031"
       d="M 968.51947,-212.69499 C 886.29305,-287.16824 818.4108,-349.89555 817.67002,-352.089 c -0.87047,-2.57749 53.08129,-3.9881 152.53304,-3.9881 H 1124.083 v 139.40106 c 0,76.67057 -1.3637,139.397878 -3.0305,139.394012 -1.6667,-0.0039 -70.3066,-60.939702 -152.53303,-135.412962 z"
       id="path6420"
       inkscape:connector-curvature="0"
       transform="scale(0.26458333)" />
    <path
       style="fill:#a0a0a0;stroke:none;stroke-width:4.04061031"
       d="M 954.92933,516.03814 784.67171,349.7166 V 194.47293 c 0,-98.018952 1.43783,-154.747191 3.90066,-153.896793 2.14536,0.740778 80.31242,75.896123 173.70458,167.011883 l 169.80395,165.66502 0.042,154.55334 c 0.023,85.00434 -1.5282,154.55334 -3.4469,154.55334 -1.9188,0 -80.1046,-74.84471 -173.74627,-166.32158 z"
       id="path6422"
       inkscape:connector-curvature="0"
       transform="scale(0.26458333)" />
    <path
       style="fill:#a0a0a0;stroke:none;stroke-width:4.04061031"
       d="m 788.71232,944.66266 c 0,-84.84112 1.52238,-145.23556 3.64124,-144.45181 2.87299,1.0627 225.71644,204.34935 301.42484,274.97175 l 16.1624,15.0767 -160.61423,0.101 -160.61425,0.101 z"
       id="path6424"
       inkscape:connector-curvature="0"
       transform="scale(0.26458333)" />
    <path
       style="fill:#a0a0a0;stroke:none;stroke-width:4.04061031"
       d="m 1171.2012,230.94566 c -1.4546,-35.07003 -2.6507,-105.76293 -2.6581,-157.095295 l -0.013,-93.331554 153.1344,-150.115211 c 84.224,-82.56336 154.2276,-150.1152 155.5635,-150.1152 1.336,0 2.4291,66.10121 2.4291,146.89159 V -25.928427 L 1330.1242,133.25619 c -82.2429,87.55158 -151.0503,159.6951 -152.9055,160.31893 -1.8551,0.62387 -4.563,-27.55939 -6.0175,-62.62946 z"
       id="path6426"
       inkscape:connector-curvature="0"
       transform="scale(0.26458333)" />
    <path
       style="fill:#000000;fill-opacity:1;stroke:#000000;stroke-width:37.79527664;stroke-miterlimit:4;stroke-dasharray:none;stroke-opacity:1"
       d="m 1179.2733,972.75862 c -1.4643,-40.42578 -2.6624,-108.57072 -2.6624,-151.43316 v -77.93173 l 148.24,-158.80638 c 81.5319,-87.34351 149.7172,-159.41247 151.5228,-160.15325 1.8056,-0.74078 3.283,68.40812 3.283,153.66421 v 155.01107 l -145.5574,155.44247 c -80.0566,85.49338 -147.0438,155.95225 -148.8605,156.57535 -1.8167,0.623 -4.5012,-31.9428 -5.9655,-72.36858 z"
       id="path6428"
       inkscape:connector-curvature="0"
       transform="scale(0.26458333)" />
    <path
       style="fill:#000000;fill-opacity:1;stroke:#000000;stroke-width:75.59055328;stroke-miterlimit:4;stroke-dasharray:none;stroke-opacity:1"
       d="m 1175.0849,249.00428 c -1.2541,-20.55661 -3.349,-88.45902 -4.6554,-150.894286 l -2.3752,-113.518636 146.0619,-143.060108 c 137.0142,-134.19834 156.0759,-151.95696 159.3762,-148.48125 0.721,0.75929 2.6371,63.30794 4.2581,138.99699 l 2.9471,137.616467 -106.2794,112.901368 C 1238.375,227.08457 1181.5926,286.37992 1179.2408,286.37992 c -1.0316,0 -2.9018,-16.81904 -4.1559,-37.37564 z"
       id="path6430"
       inkscape:connector-curvature="0"
       transform="scale(0.26458333)" />
    <path
       style="fill:#000000;fill-opacity:1;stroke:#000000;stroke-width:75.59055328;stroke-miterlimit:4;stroke-dasharray:none;stroke-opacity:1"
       d="M 1027.1083,-163.62213 C 907.12274,-271.39046 832.03156,-341.11227 830.31858,-346.34046 c -1.58548,-4.83907 112.59058,-9.70736 228.10442,-9.72602 l 65.66,-0.0106 v 37.7315 c 0,71.78132 -5.3425,232.988921 -7.7174,232.870164 -1.3113,-0.06557 -41.4771,-35.231584 -89.2573,-78.146694 z"
       id="path6432"
       inkscape:connector-curvature="0"
       transform="scale(0.26458333)" />
    <path
       style="fill:#000000;fill-opacity:1;stroke:#000000;stroke-width:75.59055328;stroke-miterlimit:4;stroke-dasharray:none;stroke-opacity:1"
       d="m 415.42452,273.24794 c -1.20718,-13.8896 -3.25541,-80.93548 -4.55161,-148.99083 L 408.51616,0.52011442 553.15737,-134.62098 c 168.5725,-157.50055 181.0528,-168.92818 184.48903,-168.92818 1.41823,0 2.56974,62.2759 2.55892,138.39089 L 740.18565,-26.767367 621.08481,95.972321 C 555.57935,163.47915 503.13918,220.58117 504.5511,222.86569 c 1.41191,2.28452 0.79321,3.05737 -1.37489,1.71738 -2.16812,-1.33994 -21.05046,14.74358 -41.96077,35.74118 -20.9103,20.99764 -39.27363,38.1775 -40.80739,38.1775 -1.53376,0 -3.77635,-11.36421 -4.98353,-25.25381 z"
       id="path6434"
       inkscape:connector-curvature="0"
       transform="scale(0.26458333)" />
    <path
       style="fill:#000000;fill-opacity:1;stroke:#000000;stroke-width:75.59055328;stroke-miterlimit:4;stroke-dasharray:none;stroke-opacity:1"
       d="M 953.27559,510.39179 784.67171,346.50508 v -45.56957 c 0,-91.32258 5.42274,-253.161843 8.4458,-252.061182 1.70686,0.621444 77.78148,73.621612 169.05472,162.222592 L 1128.1236,372.1896 v 151.04447 c 0,83.07442 -1.4049,151.04443 -3.1221,151.04443 -1.7171,0 -78.9938,-73.74902 -171.72591,-163.88671 z"
       id="path6436"
       inkscape:connector-curvature="0"
       transform="scale(0.26458333)" />
    <path
       style="fill:#000000;fill-opacity:1;stroke:#000000;stroke-width:37.79527664;stroke-miterlimit:4;stroke-dasharray:none;stroke-opacity:1"
       d="m 415.61391,944.10968 c -1.46286,-51.73553 -2.66393,-113.4355 -2.66904,-137.111 l -0.009,-43.04636 75.49602,-78.17195 c 41.5228,-42.99456 114.70835,-117.96162 162.63456,-166.59345 l 87.13854,-88.4215 1.2136,151.05096 1.2136,151.05097 -48.44623,46.46701 c -223.94332,214.7944 -267.99145,256.72034 -270.75401,257.70934 -1.73689,0.6219 -4.35488,-41.19845 -5.81774,-92.93402 z"
       id="path6438"
       inkscape:connector-curvature="0"
       transform="scale(0.26458333)" />
    <path
       style="fill:#000000;stroke:#000000;stroke-width:75.59055213;fill-opacity:1;stroke-opacity:1;stroke-miterlimit:4;stroke-dasharray:none"
       d="m 790.53346,950.05014 c 1.62888,-77.22616 3.67574,-141.14079 4.54858,-142.03252 0.87283,-0.89173 10.27457,6.38137 20.89277,16.16244 10.61819,9.78107 78.97316,72.332 151.89993,139.00207 l 132.59416,121.21827 -53.8529,2.5532 c -29.6191,1.4042 -100.02091,2.7679 -156.44851,3.0304 l -102.59565,0.4773 z"
       id="path6440"
       inkscape:connector-curvature="0"
       transform="scale(0.26458333)" />
  </g>
</svg>
